<svg width="259" height="174" viewBox="0 0 259 174" fill="none" xmlns="http://www.w3.org/2000/svg">
<g opacity="0.3">
<rect width="18" height="42" rx="3" fill="#1DAF9C"/>
<rect x="30" width="18" height="42" rx="3" fill="#1DAF9C"/>
<rect x="60" width="18" height="42" rx="3" fill="#7A5AB3"/>
<rect x="90" width="18" height="42" rx="3" fill="#1DAF9C"/>
<rect x="120" width="18" height="42" rx="3" fill="#7A5AB3"/>
<rect x="150" width="18" height="42" rx="3" fill="#1DAF9C"/>
<rect x="180" width="18" height="42" rx="3" fill="#7A5AB3"/>
<rect x="210" width="18" height="42" rx="3" fill="#7C7A71"/>
<rect x="240" width="18" height="42" rx="3" fill="#7C7A71"/>
<rect x="90" y="66" width="18" height="42" rx="3" fill="#1DAF9C"/>
<rect x="120" y="66" width="18" height="42" rx="3" fill="#C69931"/>
<rect x="150" y="66" width="18" height="42" rx="3" fill="#1DAF9C"/>
<rect x="180" y="66" width="18" height="42" rx="3" fill="#C69931"/>
<rect x="210" y="66" width="18" height="42" rx="3" fill="#C69931"/>
<rect x="240" y="66" width="18" height="42" rx="3" fill="#7C7A71"/>
<rect y="132" width="18" height="42" rx="3" fill="#1DAF9C"/>
<rect x="30" y="132" width="18" height="42" rx="3" fill="#7A5AB3"/>
<rect x="60" y="132" width="18" height="42" rx="3" fill="#1DAF9C"/>
<rect x="90" y="132" width="18" height="42" rx="3" fill="#1DAF9C"/>
<rect x="120" y="132" width="18" height="42" rx="3" fill="#7A5AB3"/>
<rect x="150" y="132" width="18" height="42" rx="3" fill="#7C7A71"/>
<rect x="180" y="132" width="18" height="42" rx="3" fill="#7C7A71"/>
<rect x="210" y="132" width="18" height="42" rx="3" fill="#7C7A71"/>
<rect x="240" y="132" width="18" height="42" rx="3" fill="#7C7A71"/>
</g>
</svg>
