<svg width="428" height="108" viewBox="0 0 428 108" fill="none" xmlns="http://www.w3.org/2000/svg">
<path d="M325.702 160.571H368.559V182H304.273V74.8571H368.559V96.2857H325.702V117.714H357.845V139.143H325.702V160.571ZM377.273 74.8571H398.702V182H377.273V74.8571ZM450.357 182H418.214V171.286H407.5V96.2857H428.929V160.571H461.071V96.2857H482.5V182H461.071V171.286H450.357V182ZM534.099 182H501.956V171.286H491.242V96.2857H512.671V160.571H544.814V96.2857H566.242V182H544.814V171.286H534.099V182ZM615.758 107H626.472V96.2857H637.186V85.5714H647.901V74.8571H658.615V85.5714H669.329V96.2857H680.044V107H690.758V182H669.329V160.571H637.186V182H615.758V107ZM637.186 139.143H669.329V117.714H658.615V107H647.901V117.714H637.186V139.143ZM699.5 74.8571H720.929V182H699.5V74.8571Z" transform="translate(-304.273 -74.8571)" fill="currentColor"/>
</svg>
