<?xml version="1.0" encoding="utf-8"?>
<svg xmlns="http://www.w3.org/2000/svg" fill="none" height="122.1" preserveAspectRatio="xMidYMid meet" viewBox="0 0 99.9 122.1" width="99.9">
<path d="M4.34565 10.1343L49.95 0L95.5543 10.1343C96.7868 10.4083 97.889 11.0943 98.6791 12.079C99.4691 13.0638 99.8998 14.2886 99.9 15.5511V70.9789C99.8996 76.4609 98.5458 81.8579 95.9589 86.6911C93.3719 91.5242 89.6318 95.6439 85.0704 98.6845L49.95 122.1L14.8296 98.6845C10.269 95.6444 6.52936 91.5256 3.94243 86.6935C1.35551 81.8614 0.00131178 76.4655 0 70.9845V15.5511C0.00021666 14.2886 0.430891 13.0638 1.22094 12.079C2.01099 11.0943 3.1132 10.4083 4.34565 10.1343V10.1343ZM11.1 20.0022V70.9789C11.1001 74.6334 12.0023 78.2313 13.7266 81.4534C15.4509 84.6755 17.944 87.422 20.9846 89.4493L49.95 108.763L78.9155 89.4493C81.9552 87.4226 84.4478 84.6769 86.1721 81.4558C87.8964 78.2348 88.799 74.638 88.8 70.9845V20.0022L49.95 11.3775L11.1 20.0022ZM55.5 49.95H72.15L44.4 88.8V61.05H27.75L55.5 22.2V49.95Z" fill="var(--fill-0, white)" id="Vector" opacity="0.32"/>
</svg>